<?xml version="1.0" encoding="UTF-8"?>
<svg width="16px" height="16px" viewBox="0 0 16 16" version="1.1" xmlns="http://www.w3.org/2000/svg" xmlns:xlink="http://www.w3.org/1999/xlink">
    <!-- Generator: sketchtool 62 (101010) - https://sketch.com -->
    <title>9294AFF6-158A-412D-87DF-62966EC8E08C</title>
    <desc>Created with sketchtool.</desc>
    <g id="V1.2" stroke="none" stroke-width="1" fill="none" fill-rule="evenodd">
        <g id="03---Authd-connect_1_barcode" transform="translate(-785.000000, -45.000000)" fill="#369DFF" fill-rule="nonzero">
            <g id="Activity-Timeline-Copy-7" transform="translate(785.000000, 44.000000)">
                <g id="icon/menu/inactive/clock" transform="translate(0.000000, 1.000000)">
                    <g id="Chat-2">
                        <path d="M14,1.33226763e-14 C15.1045695,1.33226763e-14 16,0.8954305 16,2 L16,13.9507967 C16,15.8173619 13.6695063,16.6664623 12.4687589,15.2373816 L10.588858,13 L2,13 C0.8954305,13 0,12.1045695 0,11 L0,2 C0,0.8954305 0.8954305,1.33226763e-14 2,1.33226763e-14 L14,1.33226763e-14 Z M14,2 L2,2 L2,11 L11.5206709,11 L14,13.9507967 L14,2 Z M8,5.20172174 C8.6627417,5.20172174 9.2,5.73915793 9.2,6.40211906 C9.2,7.0650802 8.6627417,7.60251639 8,7.60251639 C7.3372583,7.60251639 6.8,7.0650802 6.8,6.40211906 C6.8,5.73915793 7.3372583,5.20172174 8,5.20172174 Z M4.8,5.20172174 C5.4627417,5.20172174 6,5.73915793 6,6.40211906 C6,7.0650802 5.4627417,7.60251639 4.8,7.60251639 C4.1372583,7.60251639 3.6,7.0650802 3.6,6.40211906 C3.6,5.73915793 4.1372583,5.20172174 4.8,5.20172174 Z M11.2,5.20172174 C11.8627417,5.20172174 12.4,5.73915793 12.4,6.40211906 C12.4,7.0650802 11.8627417,7.60251639 11.2,7.60251639 C10.5372583,7.60251639 10,7.0650802 10,6.40211906 C10,5.73915793 10.5372583,5.20172174 11.2,5.20172174 Z" id="Combined-Shape"></path>
                    </g>
                </g>
            </g>
        </g>
    </g>
</svg>