<?xml version="1.0" encoding="UTF-8"?>
<svg width="16px" height="16px" viewBox="0 0 16 16" version="1.1" xmlns="http://www.w3.org/2000/svg" xmlns:xlink="http://www.w3.org/1999/xlink">
    <!-- Generator: sketchtool 62 (101010) - https://sketch.com -->
    <title>D56C9F0C-3000-4F53-B59C-AEC436AE69D4</title>
    <desc>Created with sketchtool.</desc>
    <g id="V1.2" stroke="none" stroke-width="1" fill="none" fill-rule="evenodd">
        <g id="03---Authd-connect_1_barcode" transform="translate(-983.000000, -45.000000)" fill="#369DFF">
            <g id="Activity-Timeline-Copy-8" transform="translate(983.000000, 44.000000)">
                <g id="Chats-1" transform="translate(0.000000, 1.000000)">
                    <path d="M9.02875512,0.666666667 C12.5106775,0.666666667 15.3333333,3.50219658 15.3333333,7 C15.3333333,7.97409752 15.1144201,8.8968319 14.7233194,9.72126436 L15.3003175,12.2979341 C15.460828,13.0147171 15.0109631,13.4642528 14.2963298,13.3021847 L11.7357065,12.7214739 C11.1041389,13.0235521 10.4146634,13.2232094 9.68856292,13.2990656 C8.77777501,14.5290912 7.31541475,15.3265728 5.66666667,15.3265728 C4.82162274,15.3265728 4.02554175,15.1170793 3.32759225,14.7472275 L1.62754686,15.273252 C0.922272173,15.4914766 0.524549783,15.0966584 0.739642536,14.3899765 L1.25756418,12.688358 C0.880519045,11.9858874 0.666666667,11.1828773 0.666666667,10.3299531 C0.666666667,8.65070633 1.495605,7.16493761 2.76687073,6.25899649 C3.13213251,3.11034444 5.79636374,0.666666667 9.02875512,0.666666667 Z M11.5798901,11.319249 L13.8373031,11.8399083 L13.3276485,9.56397127 L13.525139,9.14766533 C13.8403478,8.48321149 14.0060537,7.75476142 14.0060537,7 C14.0060537,4.23857625 11.7776412,2 9.02875512,2 C6.78878101,2 4.8944049,3.48642979 4.26975257,5.53094867 C4.71308061,5.4022987 5.18181433,5.33333333 5.66666667,5.33333333 C8.42809042,5.33333333 10.6666667,7.57039619 10.6666667,10.3299531 C10.6666667,10.8393704 10.5903814,11.3309823 10.4486042,11.794003 C10.6941739,11.7207495 11.5798901,11.319249 11.5798901,11.319249 Z M2.69513545,12.5518511 L2.35321803,13.6572457 L3.46009847,13.3150938 L3.95447219,13.5768108 C4.47716796,13.8535212 5.05990509,14 5.66666667,14 C7.6903406,14 9.33333333,12.3597322 9.33333333,10.3333333 C9.33333333,8.30693442 7.6903406,6.66666667 5.66666667,6.66666667 C3.64299273,6.66666667 2,8.30693442 2,10.3333333 C2,10.9479097 2.15029754,11.5377647 2.43373928,12.0653242 L2.69513545,12.5518511 Z M5.66666667,11 C5.29847683,11 5,10.7015232 5,10.3333333 C5,9.9651435 5.29847683,9.66666667 5.66666667,9.66666667 C6.0348565,9.66666667 6.33333333,9.9651435 6.33333333,10.3333333 C6.33333333,10.7015232 6.0348565,11 5.66666667,11 Z M7.66666667,11 C7.29847683,11 7,10.7015232 7,10.3333333 C7,9.9651435 7.29847683,9.66666667 7.66666667,9.66666667 C8.0348565,9.66666667 8.33333333,9.9651435 8.33333333,10.3333333 C8.33333333,10.7015232 8.0348565,11 7.66666667,11 Z M3.66666667,11 C3.29847683,11 3,10.7015232 3,10.3333333 C3,9.9651435 3.29847683,9.66666667 3.66666667,9.66666667 C4.0348565,9.66666667 4.33333333,9.9651435 4.33333333,10.3333333 C4.33333333,10.7015232 4.0348565,11 3.66666667,11 Z" id="Combined-Shape"></path>
                </g>
            </g>
        </g>
    </g>
</svg>